<svg xmlns="http://www.w3.org/2000/svg" xml:space="preserve" width="297mm" height="210mm" version="1.1" style="shape-rendering:geometricPrecision; text-rendering:geometricPrecision; image-rendering:optimizeQuality; fill-rule:evenodd; clip-rule:evenodd" viewBox="9729.62890625 7298.9296875 10228.90234375 6415.740234375" xmlns:xlink="http://www.w3.org/1999/xlink" xmlns:xodm="http://www.corel.com/coreldraw/odm/2003">
  <defs>
    <style type="text/css">
      .fil1 {fill:#373435}
    .fil2 {fill:#373435;fill-rule:nonzero}
    .fil0 {fill:#373435;fill-rule:nonzero}
    </style>
  </defs>
  <g id="Camada_x0020_1">
    <metadata id="CorelCorpID_0Corel-Layer"/>
    <path class="fil0" d="M11732.23 11802.89l1985.12 0c252.61,0 470.17,-230.43 505.82,-535.98 3.07,-28.65 4.91,-58.56 4.91,-88.48l0 -1336.13c0,-344.38 -229.24,-624.47 -510.73,-624.47l-1985.12 0 0 2585.06zm652.08 -2291.6l872.11 0c176.38,0 319.59,169.96 319.59,378.75l0 1240.65c0,208.79 -143.21,378.75 -319.59,378.75l-872.11 0 0 -1998.15zm4709 2291.6l0 -2585.06 -652.08 0 0 1145.81 -1191.7 0 0 -1145.81 -652.07 0 0 2585.06 652.07 0 0 -1145.8 1191.7 0 0 1145.8 652.08 0zm369.38 0l1985.12 0c281.49,0 510.72,-280.08 510.72,-624.46l0 -190.97c0,-238.71 -146.27,-432.86 -326.34,-432.86l0 -88.48c180.07,0 326.34,-194.15 326.34,-432.86l0 -190.96c0,-344.38 -229.23,-624.47 -510.72,-624.47l-1985.12 0 0 2585.06zm652.07 -1145.8l964.3 0c125.37,0 227.4,126.67 227.4,282.63l0 190.97c0,208.79 -143.2,378.75 -319.59,378.75l-872.11 0 0 -852.35zm0 -1145.8l872.11 0c176.39,0 319.59,169.96 319.59,378.75l0 190.96c0,155.96 -102.03,282.64 -227.4,282.64l-964.3 0 0 -852.35z"/>
    <path class="fil1" d="M9803.41 7298.93l4876.14 0 0 431.26 -4949.92 0 0 -357.48c0,-40.58 33.2,-73.78 73.78,-73.78z"/>
    <path class="fil1" d="M15151.58 7298.93l-541.95 0 0 1642.68 641.96 0 0 -1542.68c0,-55 -45.05,-100 -100.01,-100z"/>
    <path class="fil1" d="M9829.63 7298.93l473.06 0 0 6415.74 -473.06 0c-55,0 -100,-45 -100,-100l0 -6215.74c0,-55 45,-100 100,-100z"/>
    <path class="fil1" d="M9729.63 13267.52l7366 0 0 364.09c0,45.69 -37.36,83.06 -83.07,83.06l-7229.02 0c-29.66,0 -53.91,-24.25 -53.91,-53.9l0 -393.25z"/>
    <path class="fil1" d="M17095.63 12073.41l-651.49 0 0 1640.08 551.54 0c55,0 99.95,-45 99.95,-100l0 -1540.08z"/>
    <path class="fil2" d="M17740.38 12847.47l-0.24 115.13 -135.9 0 0.23 -115.13 135.91 0zm614.35 -439.68l0.8 478.06c-0.23,25.58 -11.08,44.77 -32.54,57.56 -21.46,12.79 -57.97,19.19 -109.51,19.19l-240.58 0c-39.57,0 -70.26,-3.84 -92.06,-11.51 -21.8,-7.68 -36.36,-18.83 -43.67,-33.45 -4.39,-8.77 -6.56,-19.37 -6.52,-31.79l-0.41 -244.52c0.08,-24.85 10.88,-43.85 32.42,-57.01 21.54,-13.16 58.08,-19.74 109.64,-19.74l246.81 0 -0.28 -156.79 135.9 0zm-167.31 232.45l-189.01 0c-9.9,0 -17.79,2.19 -23.66,6.58 -5.88,4.38 -8.81,10.23 -8.81,17.54l0.82 198.46c0.26,3.66 1.13,6.95 2.59,9.87 4.75,9.5 14.41,14.25 29,14.25l189.01 0c9.89,0 17.78,-2.19 23.66,-6.58 5.88,-4.38 8.81,-10.23 8.8,-17.54l-0.81 -198.46c0.62,-2.92 0.02,-6.21 -1.81,-9.87 -4.75,-9.5 -14.68,-14.25 -29.78,-14.25zm421.78 0l193.7 0c15.1,0 25.03,4.75 29.78,14.25 1.83,3.66 2.43,6.95 1.81,9.87l0.24 61.4 -253.06 0 -0.24 -61.4c1.02,-14.62 10.28,-22.66 27.77,-24.12zm361.57 246.7l-356.94 0c-14.58,0 -24.25,-4.75 -29,-14.25 -1.46,-2.92 -2.33,-6.21 -2.59,-9.87l-0.24 -61.4 246.82 0c51.55,0 88.06,-6.4 109.51,-19.19 21.47,-12.79 32.31,-31.98 32.54,-57.56l-0.27 -83.34c-0.48,-12.42 -2.74,-22.66 -6.76,-30.7 -7.31,-14.62 -21.83,-25.95 -43.55,-33.99 -21.72,-8.04 -52.38,-12.06 -91.95,-12.06l-269.46 0c-40.62,0 -69.6,7.13 -86.95,21.38 -17.34,14.26 -26.08,32.71 -26.21,55.37l0.41 244.52c-0.04,12.42 2.14,23.02 6.52,31.79 7.31,14.62 21.87,25.77 43.67,33.45 21.8,7.67 52.49,11.51 92.07,11.51l382.72 0 -0.34 -75.66zm469.93 -322.36l-145.06 278.5 -125.19 -278.5 -127.31 0 186.51 398.02 125.75 0 206.37 -398.02 -121.07 0z"/>
  </g>
</svg>
